<svg xmlns="http://www.w3.org/2000/svg" xmlns:xlink="http://www.w3.org/1999/xlink" version="1.1" id="Layer_1" x="0px" y="0px" width="48.923px" height="30.997px" viewBox="0 0 48.923 30.997" enable-background="new 0 0 48.923 30.997" xml:space="preserve" class="svg-icon replaced-svg">
<path d="M13.37,1.471c-0.581-0.13-0.984,0.214-1.051,0.628c1.478-0.147,2.391,0.799,2.635,1.776  c-0.377,1.493,0.231,3.067,1.054,4.262C15.25,7.788,14.48,7.419,13.719,7.06C10.31,5.432,6.764,3.734,4.071,3.303  c-0.398-0.065-0.777-0.097-1.12-0.097c-1.645,0-2.39,0.721-2.725,1.325c-0.724,1.304,0.338,4.181,2.484,6.226  c1.239,1.177,2.737,1.764,4.009,1.764c0.703,0,1.359-0.187,1.948-0.557c0.278,0.197,0.839,0.52,1.21,0.676  c-1.273,0.424-2.25,1.18-2.729,2.022c-0.471,0.822-0.474,1.817-0.007,2.651c1.144,2.053,4.18,1.932,6.068,0.873l0.192-0.099  c-0.352,0.679-0.391,1.341-0.429,2.112c-0.065,1.188-0.004,2.081-0.766,2.735c0.361,0.223,0.908,0.106,1.063-0.206  c0.274,0.391,0.841,0.401,1.065,0.18c-0.8-0.554-1.071-1.875-0.446-2.956c1.18-0.73,1.743-1.804,2.032-3.077  c1.448-0.284,1.814-0.937,2.589-2.323c0.87-1.556,2.636-1.564,3.413-0.373h5.095c0.774-1.191,2.542-1.183,3.409,0.373  c0.776,1.385,1.142,2.038,2.589,2.323c0.29,1.273,0.853,2.348,2.034,3.077c0.625,1.082,0.352,2.402-0.447,2.956  c0.223,0.221,0.79,0.211,1.065-0.18c0.155,0.312,0.699,0.429,1.061,0.206c-0.76-0.654-0.699-1.547-0.763-2.735  c-0.041-0.771-0.076-1.433-0.43-2.107l0.192,0.094c1.889,1.06,4.964,1.089,6.122-0.912c0.471-0.813,0.471-1.78-0.004-2.579  c-0.487-0.824-1.511-1.63-2.782-2.054c0.368-0.156,0.942-0.488,1.224-0.684c0.595,0.367,1.257,0.548,1.965,0.548  c1.284,0,2.735-0.57,3.973-1.748c2.149-2.045,3.197-4.913,2.469-6.207c-0.335-0.606-1.08-1.32-2.724-1.32  c-0.346,0-0.722,0.032-1.122,0.097c-2.694,0.427-6.193,2.122-9.602,3.745c-0.758,0.364-1.528,0.73-2.288,1.083  c0.822-1.198,1.401-2.787,1.024-4.28c0.242-0.977,1.158-1.923,2.635-1.776c-0.066-0.414-0.469-0.758-1.05-0.628  C35.793,0.635,35.65,0.159,35.13,0c-0.068,1.459-0.915,2.309-1.451,2.921c-0.965,1.104-1.74,2.135-1.53,4.162  c-1.779,0.137-2.493,1.272-2.722,2.2c-0.287-0.124-0.609-0.19-0.945-0.192c0.436-0.445,0.71-1.052,0.71-1.724  c0-1.36-1.101-2.464-2.46-2.464c-0.694,0.648-0.949,2.124-0.498,3.095c-0.272-0.066-0.72-0.144-1.017-0.174  c-0.054-0.256-0.088-0.519-0.088-0.799c0-1.487,1.007-2.835,2.825-3.26c0.744-0.174,1.516-0.137,2.247,0.1  c0.159,0.052,0.343-0.037,0.402-0.202c0.055-0.172-0.032-0.352-0.206-0.407c-0.831-0.276-1.731-0.314-2.588-0.115  c-1.139,0.262-2.071,0.921-2.717,1.786H25.09c-0.302-0.436-0.93-0.454-1.245,0c-0.646-0.865-1.578-1.524-2.718-1.786  c-0.856-0.199-1.755-0.161-2.586,0.115c-0.172,0.055-0.262,0.234-0.204,0.407c0.058,0.165,0.241,0.253,0.4,0.202  c0.729-0.237,1.505-0.274,2.247-0.1c1.653,0.385,2.83,1.636,2.83,3.26c0,0.28-0.037,0.542-0.088,0.799  c-0.302,0.032-0.753,0.105-1.032,0.171c0.452-0.97,0.183-2.501-0.488-3.092c-1.36,0-2.463,1.104-2.463,2.464  c0,0.672,0.273,1.279,0.71,1.724c-0.335,0.001-0.655,0.068-0.945,0.192c-0.228-0.928-0.941-2.063-2.722-2.2  c0.212-2.026-0.561-3.058-1.527-4.162C14.723,2.309,13.875,1.459,13.808,0C13.287,0.159,13.142,0.635,13.37,1.471L13.37,1.471z   M40.318,17.241c-1.293,0.899-3.3,0.56-5.14-0.69c-2.748-1.861-3.499-3.472-5.882-3.816c-0.102-0.035-0.034-0.053,0.062-0.088  c1.906-0.749,5.343,1.317,8.663,0.423C41.444,13.969,41.808,16.208,40.318,17.241L40.318,17.241z M30.915,10.298  c5.854-2.293,10.238-5.351,14.025-6.064c2.31-0.433,3.211,0.765,2.147,3.226c-1.789,4.122-4.918,4.576-6.927,2.683  c-1.15,1.826-3.085,2.205-7.655,1.727c-2.968-0.308-3.737-0.037-4.51,0.769c-0.094,0.091-0.39,0.165-0.317,0.007  C28.077,11.747,29.019,11.038,30.915,10.298L30.915,10.298z M19.64,12.736c-2.386,0.343-3.133,1.954-5.882,3.816  c-1.841,1.25-3.845,1.589-5.14,0.69c-1.489-1.033-1.124-3.272,2.298-4.171c3.32,0.895,6.756-1.172,8.661-0.423  C19.675,12.683,19.74,12.701,19.64,12.736L19.64,12.736z M18.022,10.298c1.894,0.74,2.839,1.449,3.237,2.349  c0.072,0.158-0.225,0.084-0.315-0.007c-0.775-0.806-1.544-1.077-4.51-0.769c-4.571,0.477-6.508,0.099-7.655-1.727  C6.765,12.036,3.64,11.582,1.85,7.46C0.784,4.999,1.685,3.801,3.996,4.234C7.786,4.947,12.168,8.005,18.022,10.298L18.022,10.298z   M31.827,28.776c0.222,0.301,0.906,0.203,1.158-0.195c0.263,0.435,0.854,0.482,1.18,0.226c-0.631-0.513-0.892-1.068-0.82-2.065  c0-0.009,0-0.006-0.002-0.009c0.155-1.014,0.348-1.26,0.521-2.37c-0.687-0.629-0.855-1.872-0.309-2.868  c-0.346-0.841-1.493-2.104-2.472-2.436c-0.316-1.035-1.1-1.727-1.942-1.897c-0.272-0.522-0.566-1.018-0.919-1.434H20.76  c-0.354,0.42-0.659,0.909-0.939,1.428c-0.852,0.164-1.648,0.861-1.964,1.903c-0.98,0.332-2.128,1.595-2.474,2.436  c0.544,0.996,0.375,2.239-0.31,2.868c0.173,1.11,0.365,1.356,0.522,2.37c0,0.003-0.003,0-0.003,0.009  c0.073,0.996-0.192,1.552-0.82,2.065c0.323,0.256,0.916,0.209,1.181-0.226c0.251,0.398,0.935,0.495,1.157,0.195  c-1.069-0.917-1.139-1.876-0.507-3.012c0.626-1.107,0.48-2.057,0.047-2.9c1.355-1.102,0.915-1.984,2.131-2.965  c0.075-0.336,0.171-0.69,0.307-1.03l0.042-0.09l-0.035,0.09h10.753c0.134,0.34,0.234,0.694,0.307,1.03  c1.215,0.982,0.774,1.863,2.13,2.965c-0.43,0.843-0.579,1.794,0.045,2.9C32.968,26.9,32.892,27.86,31.827,28.776L31.827,28.776z   M24.49,30.997c1.218-0.607,4.342-2.527,5.062-4.48H19.425C20.171,28.534,23.278,30.353,24.49,30.997L24.49,30.997z M30.394,22.236  c0-0.361-0.042-0.702-0.071-1.039H18.656c-0.027,0.338-0.071,0.678-0.071,1.039c0,0.696,0.072,1.36,0.186,2.009v-0.046h11.45  C30.329,23.567,30.394,22.914,30.394,22.236L30.394,22.236z"></path>
</svg>