<svg xmlns="http://www.w3.org/2000/svg" xmlns:xlink="http://www.w3.org/1999/xlink" version="1.1" id="Layer_1" x="0px" y="0px" viewBox="0 0 99 108.65" style="enable-background:new 0 0 99 108.65;" xml:space="preserve" class="svg-icon replaced-svg">
<style type="text/css">
	.st0{fill:#FFFFFF;}
</style>
<path class="st0" d="M92.49,53.66c-1.97-7.45-6.13-12.89-11.56-16.8c-2.79-2-5.88-3.5-9.71-4.36c-3.56-0.79-7.12-0.37-10.48,1  c-2.81,1.15-5.2,3.02-7.92,4.29c-0.81,0.38-1.7,0.5-2.71,0.77c-0.38-0.33-0.49-0.92-0.56-1.49c-0.15-1.26-0.16-2.58-0.27-3.78  c-0.06-0.67-0.09-1.33-0.16-1.92L48.8,29c0.68-1.93,1.72-4.43,2.9-5.68c8.19-7.15,30.67-5.35,37.36,1.49  c-0.3-6.55-12.79-23.73-26.92-20.25c-12.37,3.04-11.88,12.53-11,16.73c-0.68,0.93-1.91,2.7-2.86,4.66  c-0.86-4.05-2.21-7.51-4.2-10.39c-2.21-3.2-5.2-5.59-8.81-7.35c-0.19-0.09-0.42-0.04-0.54,0.12c-0.47,0.61-2.08,1.89-3.03,2.62  c-0.16,0.13-0.1,0.39,0.1,0.42c1.81,0.32,5.07,3.31,5.9,4.04c3.86,3.42,6.63,7.94,7.61,14.36c0.23,1.53,0.47,3.21,0.58,4.95  c0.1,1.67,0.32,4-0.62,4.69c-0.47,0.35-1.28,0.54-2.06,0.68c-5.65,1.04-11.6,0.88-17.3,0.43c-0.36-0.03-0.77-0.08-1-0.36  c-0.76-0.94,2.73-2.14,3.28-2.34c3.84-1.43,7.77-0.99,11.78-1.14c1.16-0.04,3.02,0.42,2.7-0.98c-0.34-0.6-0.93-0.88-1.59-1.21  c-1.6-0.8-3.34-1.53-5.16-1.93c-1.33-0.29-2.67-0.57-3.94-0.77c-8.36-1.3-16.82,4.17-21.48,10.78c-4.85,6.87-6.68,15.07-6.22,23.41  c0.45,8.21,2.92,16.43,7.08,23.52c5.73,9.77,15.52,18.29,27.78,17.14c3.73-0.35,8.04-2.9,11.42-3.09c3.37-0.19,9.23,1.81,10.62,2.17  c4.24,1.11,9.4-0.76,12.91-3.07c2.08-1.38,4.04-2.99,5.77-4.71c1.18-1.17,2.38-2.33,3.54-3.45c0.59-0.57,1.02-1.33,1.53-1.98  c0.76-0.97,1.55-2,2.05-3.19c0.16-0.38,0.43-0.76,0.63-1.12c0.41-0.76,0.86-1.47,1.26-2.22c2.83-5.41,4.45-11.75,4.9-19.5  C94,61.84,93.48,57.4,92.49,53.66 M84.12,18.53c-19.2-10.55-30.4-0.67-30.4-0.67C57.15,9.34,73.48,6.98,84.12,18.53 M14.81,46.58  c0.41-0.66,2.34-2.66,2.88-2.99c0.02,0,0.04,0,0.06,0c3.13,2.95,6.27,3.8,10.05,4.58c3.86,0.8,7.76,1.16,11.63,1.08  c6.05-0.13,12.03-1.4,18.01-2.31c0.99-0.15,2.01-0.3,2.93-0.03c0.42,0.12,0.83,0.35,1.06,0.76c0.22,0.41,0.21,1.04-0.12,1.42  c-0.2,0.23-0.48,0.3-0.73,0.44c-7.56,4.09-20.76,6.14-29.67,6.18c-6.72,0.04-13.27-0.64-19.02-2.19  C12.55,50.98,13.51,48.64,14.81,46.58 M38.04,98.79c-2.37,0.71-4.84,0.65-7.19-0.05c-1.7-0.51-3.28-1.42-4.83-2.49  c-0.88-0.61-4.11-2.87-4.65-3.74c5.41,1.95,19.56,3.4,23.59,3.29C46.49,95.75,39.87,98.24,38.04,98.79 M61.39,86.04  c-0.7,0.84-2.09,1.25-3.51,1.69c-2.41,0.75-5.1,1.49-7.73,1.95c-3.7,0.65-7.41,1.18-11.06,1.33c-0.93,0.04-1.85,0.11-2.75,0.11  c-0.91,0-1.81-0.03-2.7-0.03c-5.27-0.02-10.27-0.72-14.66-1.85c-0.41-0.1-1.15-1.32-1.47-1.83c-0.03-0.05-0.06-0.09-0.08-0.12  c-0.52-0.78-0.99-1.61-1.42-2.46c-0.84-1.66-1.53-3.4-2.2-5.14c6.27,2.73,13.14,4.68,20.86,5.47c2.12,0.22,4.33,0.33,6.61,0.42  c2.25,0.09,4.64-0.07,6.99-0.23c2.34-0.16,4.48-0.43,6.96-0.69c1.06-0.11,2.33-0.25,3.49-0.44c1.49-0.25,3.37-0.7,3.22,0.7  C61.9,85.27,61.63,85.74,61.39,86.04 M63.85,74.27c-0.5,0.58-1.71,1.1-2.57,1.42c-1.03,0.38-2.14,0.69-3.13,0.99  c-1.59,0.49-3.12,0.95-4.81,1.33c-0.56,0.12-1.12,0.23-1.68,0.36c-4.42,1.02-9.42,1.52-14.06,1.83c-8.64,0.57-17.09-0.39-24.37-2.35  c-1.07-3.33-1.82-6.76-2.23-10.19c2.83,1.27,5.73,2.41,8.82,3.3c2.1,0.61,4.26,1.1,6.5,1.59c2.2,0.48,4.5,0.77,6.87,1.04  c2.29,0.27,4.77,0.37,7.29,0.46c1.24,0.04,2.51-0.04,3.76-0.02c1.27,0.02,2.56-0.04,3.79-0.14c1.24-0.1,2.54-0.17,3.82-0.32  c2.59-0.3,4.93-0.45,7.59-0.86c0.59-0.09,1.2-0.13,1.84-0.16c0.63-0.04,1.4-0.21,1.85-0.15c0.34,0.04,0.79,0.33,0.91,0.56  C64.24,73.36,64.11,73.97,63.85,74.27 M64.48,60.84c-0.13,0.77-1.48,1.36-2.48,1.71c-2.32,0.79-4.41,1.5-6.73,2.14  c-1.17,0.32-2.35,0.59-3.53,0.88c-4.85,1.17-10,1.69-15.07,2.16c-8.93,0.83-18.04-0.14-25.65-2.14c-0.3-3.45-0.16-6.7,0.38-9.7  c6.62,2.81,13.87,4.56,22.2,5.31c4.6,0.41,9.36,0.25,14.17-0.09c2.41-0.17,4.86-0.45,7.28-0.77c1.83-0.24,3.68-0.47,5.46-0.64  c0.94-0.09,2.02-0.4,2.78-0.28C63.87,59.5,64.61,60.03,64.48,60.84"></path>
</svg>