<svg xmlns="http://www.w3.org/2000/svg" xmlns:xlink="http://www.w3.org/1999/xlink" version="1.1" id="Layer_1" x="0px" y="0px" viewBox="0 0 44 34.3" enable-background="new 0 0 44 34.3" xml:space="preserve" class="svg-icon replaced-svg">
<path d="M14.2,11L14.2,11L14.2,11L14.2,11l-0.1,1.2l0,0c0.7,0,1.1,0.7,1.1,1.4v8.1c-0.1,0-0.2,0-0.2,0c-1.4,0-2.7-1.1-2.7-2.5  c0-0.8,0.6-1.3,1.1-1.3v-1.2h-2.2v2.7c0.1,2,1.8,3.6,3.9,3.6s3.9-1.7,3.9-3.8v-8.1h-4.8V11z M16.5,21.3v-7.6c0-0.6-0.1-1-0.3-1.4  h1.7v6.9C17.8,20.1,17.2,20.8,16.5,21.3z M41.7,7C37,2.4,29.5-0.4,21.5-0.4S6.1,2.4,1.4,7L1.3,7.1v20.1l0.2,0.2  c4.6,4.6,12.2,7.4,20.1,7.4s15.5-2.8,20.1-7.4l0.2-0.2V7.1L41.7,7z M40.7,19.1c-1.8,0.4-4,0.8-6.5,1v-5.6c2.5,0.2,4.8,0.6,6.5,1  V19.1z M34.1,21.2c2.5-0.2,4.8-0.6,6.5-1v3.1c-1.8,1.1-4,2.1-6.5,2.8V21.2z M34.1,3.4c2.5,1.1,4.8,2.5,6.5,4.3v2.1  c-1.9-1.1-4.1-2-6.5-2.7V3.4z M40.7,11.1v3.1c-1.8-0.3-4-0.7-6.5-1V8.3C36.7,9.1,38.9,10,40.7,11.1z M8.9,31.1  c-2.5-1.1-4.8-2.5-6.5-4.3v-2.1c1.9,1.1,4.1,2,6.5,2.7V31.1z M8.9,26.1c-2.5-0.8-4.8-1.7-6.5-2.8v-3.1c1.8,0.3,4,0.7,6.5,1V26.1z   M8.9,20.1c-2.5-0.2-4.8-0.6-6.5-1v-3.6c1.8-0.3,4-0.8,6.5-1V20.1z M8.9,13.3c-2.5,0.2-4.8,0.6-6.5,1v-3.1c1.8-1.1,4-2.1,6.5-2.8  V13.3z M8.9,7.1C6.5,7.8,4.3,8.8,2.4,9.8V7.7c1.8-1.8,4-3.2,6.5-4.3C8.9,3.4,8.9,7.1,8.9,7.1z M33,31.7c-3.4,1.3-7.4,2.1-11.5,2.1  s-8-0.8-11.5-2.1v-4c3.5,0.9,7.4,1.3,11.5,1.3c4,0,8-0.4,11.5-1.3V31.7z M33,26.5c-3.5,0.9-7.4,1.4-11.5,1.4s-8-0.4-11.5-1.4V8  c3.4-0.9,7.4-1.4,11.5-1.4S29.5,7,33,8V26.5z M33,6.8c-3.5-0.9-7.4-1.3-11.5-1.3s-8,0.4-11.5,1.3v-4c3.4-1.3,7.4-2.1,11.5-2.1  s8,0.8,11.5,2.1V6.8z M34.1,31.1v-3.8c2.4-0.7,4.6-1.7,6.5-2.7v2.1C38.9,28.6,36.7,30,34.1,31.1z M26.6,11c-0.1,0-0.3-0.1-0.4-0.1  h-1.5l0,0h-4.1l0,0l0,0l0,0v1.2l0,0c0.7,0,1.1,0.7,1.1,1.4v6.6c0,0.8-0.6,1.4-1.1,1.4l0,0l0,0v1.2h4.2h0.6h1c2.9,0,5.1-2.7,5.1-5.9  C31.3,13.9,29.3,11.3,26.6,11z M24.1,21.6h-1.7c0.2-0.4,0.3-0.9,0.3-1.4v-6.6c0-0.6-0.1-1-0.3-1.4h1.7V21.6z M25.2,21.6v-9.5h1  c0.7,0,1.1,0.7,1.1,1.3v6.7c0,0.8-0.6,1.3-1.1,1.3l0,0l0,0h-1V21.6z M28.4,20.8c0-0.2,0.1-0.3,0.1-0.6v-6.7c0-0.2,0-0.3-0.1-0.6  c1,0.9,1.8,2.3,1.8,3.9C30.2,18.5,29.4,19.9,28.4,20.8z"></path>
</svg>