<svg xmlns="http://www.w3.org/2000/svg" xmlns:xlink="http://www.w3.org/1999/xlink" version="1.1" id="Layer_1" x="0px" y="0px" width="26.787px" height="33.759px" viewBox="0 0 26.787 33.759" enable-background="new 0 0 26.787 33.759" xml:space="preserve" class="svg-icon replaced-svg">
<path d="M24.235,14.691c-0.001-0.001-0.003-0.003-0.004-0.004c-0.021-0.021-0.045-0.039-0.066-0.06  c-0.351-0.349-0.738-0.677-1.167-0.976c-0.72-0.5-0.69,0.251-0.641,0.552c0.157,0.968,0.165,2.002-0.013,2.807  c-0.227,1.029-0.757,1.677-1.659,1.316c-3.141-1.717,0.243-7.855-0.324-12.097c-0.05-0.378-0.122-0.741-0.206-1.089  c-0.568-2.394-1.897-4.088-3.49-5.069c-0.427-0.263-0.738,0.246-0.437,0.888c3.343,7.178-1.424,11.717-4.901,10.4  c-1.147-0.455-2.149-1.558-2.656-3.428C8.605,7.696,8.521,7.461,8.37,7.41C8.24,7.365,8.057,7.459,7.786,7.833  c-4.746,6.568,2.21,13.114-1.849,14.584c-0.123,0.046-0.256,0.086-0.4,0.121c-2.863,0.693-3.406-3.027-3.995-5.798  c-0.04-0.192-0.199-0.264-0.349-0.241c-0.107,0.016-0.211,0.073-0.26,0.198C0.279,18.344-0.005,20.063,0,21.742  c0.009,3.309,1.177,6.455,3.07,8.589c1.412,1.801,3.201,3.072,5.133,3.417c0.506,0.091,0.798-0.417,0.209-0.616  c-0.206-0.07-0.403-0.151-0.598-0.231c-2.033-0.824-3.531-2.219-3.744-4.82c-0.012-0.142,0.006-1.339,0.235-1.708  c0.077-0.164,0.201-0.254,0.38-0.078c1.019,0.998,2.762,1.121,3.895,0.372c0.883-0.583,1.395-1.694,0.906-3.336  c-0.322-1.085-0.727-2.11-0.567-3.511c0.025-0.217,0.112-0.434,0.263-0.499c0.11-0.046,0.253-0.015,0.436,0.17  c0.59,0.588,1.611,1.137,2.735,1.144c0.104,0,0.208-0.003,0.312-0.011c0.123-0.011,0.248-0.028,0.373-0.052  c0.036-0.007,0.071-0.017,0.107-0.025c1.552-0.366,3.15-1.928,3.983-5.933c0.055-0.266,0.358-0.162,0.42,0.015  c0.12,0.334,0.183,0.693,0.222,1.059c0.035,0.312,0.047,0.631,0.038,0.958c-0.039,1.538-0.466,3.2-0.593,4.594  c-0.149,1.615,0.455,2.772,1.49,2.829c0.593,0.032,1.328-0.305,2.144-1.118c0.306-0.291,0.579-0.602,0.803-0.897  c0.164-0.213,0.388-0.231,0.529-0.073c0.001,0.003,0.003,0.007,0.005,0.01c0.045,0.053,0.082,0.121,0.103,0.212  c0.287,1.164,0.385,2.306,0.34,3.391c-0.158,3.804-2.16,6.883-4.779,7.495c-0.029,0.007-0.052,0.024-0.077,0.038  c-0.294,0.167-0.184,0.775,0.604,0.548c4.932-1.422,8.389-7.053,8.407-12.277C26.846,18.916,26.076,16.522,24.235,14.691"></path>
</svg>