
<svg xmlns="http://www.w3.org/2000/svg" xmlns:xlink="http://www.w3.org/1999/xlink" version="1.1" id="Layer_1" x="0px" y="0px" width="32.605px" height="37.534px" viewBox="0 0 32.605 37.534" enable-background="new 0 0 32.605 37.534" xml:space="preserve" class="svg-icon replaced-svg">
<path d="M7.46,29.405c0,0,0.323,0,0.336,0l0,0h0.203c2.227,0,7.427-0.808,7.427-8.293c0-4.153-1.535-7.178-3.656-11.377  c-0.488-0.953-0.995-1.965-1.516-3.048c-0.976-2.03-1.739-3.959-2.279-5.74C7.88,0.634,7.786,0.317,7.709,0  C7.621,0.346,7.521,0.708,7.408,1.102C6.871,2.822,6.121,4.7,5.168,6.687C4.644,7.776,4.131,8.782,3.642,9.741  C1.529,13.933,0,16.962,0,21.112C0,28.597,5.22,29.405,7.46,29.405z M9.955,25.747c1.121-0.776,1.218-1.606,1.836-2.702  c0.401-0.692,1.406-0.747,1.748-0.527c0.931,0.588,0.01,2.266-0.281,2.712c-0.824,1.244-2.204,2.088-3.491,2.418  c-1.26,0.346-2.741,0.204-2.899,0.039C6.493,27.314,8.652,26.632,9.955,25.747z M2.279,17.712c0.472-1.839,2.902-6.522,4.337-8.326  c0.126-0.158,0.3-0.2,0.226,0.126c-0.145,0.562-0.365,1.461-0.517,2.207c-0.365,1.839-0.213,4.04-0.275,5.349  c-0.097,2.033-0.527,5.081-2.091,6.448c-0.743,0.659-1.855,0.407-2.097-1.06C1.681,21.338,1.742,19.822,2.279,17.712z   M24.641,37.534c0,0,0.323,0,0.339,0l0,0h0.197c2.23,0,7.427-0.802,7.427-8.287c0-4.153-1.532-7.182-3.652-11.377  c-0.485-0.953-0.999-1.965-1.516-3.048c-0.976-2.026-1.742-3.959-2.282-5.737c-0.097-0.32-0.187-0.637-0.265-0.954  c-0.087,0.349-0.184,0.711-0.304,1.102c-0.533,1.726-1.283,3.601-2.237,5.588c-0.524,1.089-1.037,2.094-1.519,3.058  c-2.124,4.186-3.652,7.214-3.652,11.367C17.178,36.732,22.405,37.534,24.641,37.534z M27.136,33.885  c1.118-0.779,1.218-1.606,1.833-2.705c0.401-0.692,1.409-0.747,1.749-0.524c0.934,0.585,0.01,2.256-0.278,2.709  c-0.824,1.244-2.204,2.085-3.491,2.418c-1.26,0.346-2.738,0.204-2.896,0.039C23.675,35.449,25.834,34.764,27.136,33.885z   M19.46,25.847c0.475-1.839,2.902-6.522,4.337-8.326c0.129-0.158,0.304-0.2,0.226,0.129c-0.146,0.559-0.365,1.458-0.517,2.204  c-0.365,1.836-0.216,4.04-0.278,5.346c-0.094,2.036-0.527,5.084-2.088,6.451c-0.74,0.656-1.855,0.407-2.094-1.063  C18.859,29.473,18.924,27.957,19.46,25.847z"></path>
</svg>