<svg xmlns="http://www.w3.org/2000/svg" xmlns:xlink="http://www.w3.org/1999/xlink" version="1.1" id="Capa_1" x="0px" y="0px" viewBox="66.47 141 280.508 512" style="enable-background:new 66.47 141 280.508 512;" xml:space="preserve" class="svg-icon replaced-svg">
<g>
	<path style="fill:#FFFFFF;" d="M343.929,250.257l-17.137-36.254c3.854-1.382,6.616-5.058,6.616-9.388   c0-5.513-4.47-9.981-9.981-9.981h-26.317l4.411-26.086c1.173-6.933-0.759-13.991-5.298-19.361   c-4.539-5.372-11.175-8.452-18.207-8.452h-41.93c-7.032,0-13.669,3.08-18.207,8.451c-4.54,5.371-6.47,12.428-5.298,19.361   l4.411,26.087H90.858c-5.512,0-9.981,4.469-9.981,9.981c0,4.33,2.762,8.005,6.617,9.388l-17.138,36.254   c-0.631,1.335-0.957,2.791-0.957,4.266v181.163c0,5.512,4.47,9.981,9.981,9.981s9.981-4.47,9.981-9.981V264.505h167.356   c5.512,0,9.981-4.469,9.981-9.981s-4.47-9.981-9.981-9.981H95.138l14.156-29.944H304.99l19.933,42.167v325.15H89.361V408.237   c0-5.512-4.47-9.981-9.981-9.981s-9.981,4.47-9.981,9.981v183.658c0,1.475,0.326,2.933,0.957,4.265l17.497,37.014   c-2.974,1.729-4.98,4.941-4.98,8.628c0,5.512,4.47,9.981,9.981,9.981h10.117h208.342h10.116c5.512,0,9.981-4.47,9.981-9.981   c0-3.687-2.005-6.899-4.979-8.628l17.496-37.014c0.631-1.334,0.957-2.791,0.957-4.265V254.523   C344.886,253.048,344.559,251.592,343.929,250.257z M237.236,194.635l-4.973-29.415c-0.262-1.543,0.427-2.634,0.86-3.147   c0.433-0.513,1.395-1.374,2.961-1.374h41.93c1.565,0,2.526,0.86,2.961,1.373c0.434,0.513,1.122,1.604,0.86,3.148l-4.973,29.415   H237.236z M109.294,631.822l-14.156-29.944h224.007l-14.156,29.944H109.294z"></path>
	<path style="fill:#FFFFFF;" d="M214.194,261.58c1.867-1.857,2.934-4.432,2.934-7.057s-1.067-5.2-2.934-7.057   c-1.848-1.857-4.423-2.925-7.057-2.925c-2.625,0-5.19,1.068-7.057,2.925c-1.856,1.857-2.925,4.432-2.925,7.057   s1.068,5.2,2.925,7.057c1.867,1.857,4.432,2.925,7.057,2.925C209.772,264.505,212.347,263.437,214.194,261.58z"></path>
	<path style="fill:#FFFFFF;" d="M288.236,244.542h-5.324c-5.512,0-9.981,4.469-9.981,9.981s4.47,9.981,9.981,9.981h5.324   c5.512,0,9.981-4.469,9.981-9.981S293.747,244.542,288.236,244.542z"></path>
</g>
<path style="fill:#FFFFFF;" d="M207.142,483.333c-55.42,0-98.832-29.506-98.832-67.173c0-13.304,5.665-31.343,32.652-41.721  c15.89-6.111,37.537-9.081,66.18-9.081c28.642,0,50.289,2.971,66.179,9.081c26.988,10.378,32.652,28.417,32.652,41.721  C305.973,453.827,262.561,483.333,207.142,483.333z M207.142,386.641c-51.457,0-77.549,9.932-77.549,29.519  c0,24.876,35.513,45.89,77.549,45.89s77.548-21.015,77.548-45.89C284.69,396.572,258.599,386.641,207.142,386.641z"></path>
</svg>