<svg xmlns="http://www.w3.org/2000/svg" xmlns:xlink="http://www.w3.org/1999/xlink" version="1.1" id="Layer_1" x="0px" y="0px" viewBox="0 0 43.6 21.2" enable-background="new 0 0 43.6 21.2" xml:space="preserve" class="svg-icon replaced-svg">
<path d="M42.9,16.6c-0.4-0.1-1.8-0.2-2.6-0.2c-0.8,0-3.1,0.2-4.4,0.2c0,0-0.1-7.1-0.1-7.7c0-2.4-0.2-3-1.6-4.1  c-0.6-0.4-2.2-1.5-4.2-2.3c-1.9-0.8-4.6-1.7-7.6-2.2c-2.7-0.4-8.9,0.8-10.1,1.1c-1.2,0.3-2.1,1-2.2,2C10,4.3,9,11.1,8.5,14.9  l0.1-0.1c4.5-1.7,21.9,2.2,21.9,2.2s-4.2,0.4-6.7,0.4c-2.2,0-13.5-0.1-15.6,0l0,0c-2.2,0.4-3,0.6-4.7,1.1c-1.6,0.5-2.3,1.1-2.7,1.5  c-0.4,0.4-0.6,0.7-0.6,0.8C0.4,20.9,0.6,21,0.8,21c0.2,0,5.9-0.2,7.8-0.4c1.4-0.1,4.2-0.4,5.9-0.4c1.6,0,6.1,0.1,7.4,0.1  c1.2,0,2.1,0.2,6,0.4c4.8,0.2,5.9,0.4,8.5,0.4c0.3,0,2.3-0.2,3.3-0.5c1-0.3,2.2-0.9,2.3-1.1c0.1-0.2,1.3-1.6,1.5-2.1  C43.7,16.8,43.3,16.8,42.9,16.6"></path>
</svg>